<svg xmlns="http://www.w3.org/2000/svg" viewBox="0 0 80 80" width="80" height="80">
  <!-- Chef Hat -->
  <ellipse cx="40" cy="15" rx="18" ry="6" fill="#f5f5dc" stroke="#333" stroke-width="2"/>
  <ellipse cx="32" cy="10" rx="8" ry="6" fill="#f5f5dc" stroke="#333" stroke-width="2"/>
  <ellipse cx="40" cy="8" rx="10" ry="7" fill="#f5f5dc" stroke="#333" stroke-width="2"/>
  <ellipse cx="48" cy="10" rx="8" ry="6" fill="#f5f5dc" stroke="#333" stroke-width="2"/>
  <rect x="22" y="15" width="36" height="8" fill="#f5f5dc" stroke="#333" stroke-width="2"/>
  
  <!-- Cat Face -->
  <circle cx="40" cy="45" r="20" fill="#4a4a4a" stroke="#333" stroke-width="2"/>
  
  <!-- Cat Ears -->
  <polygon points="26,28 34,36 30,40" fill="#4a4a4a" stroke="#333" stroke-width="2"/>
  <polygon points="54,28 46,36 50,40" fill="#4a4a4a" stroke="#333" stroke-width="2"/>
  <polygon points="28,30 32,36 30,38" fill="#666" stroke="none"/>
  <polygon points="52,30 48,36 50,38" fill="#666" stroke="none"/>
  
  <!-- Cat Eyes -->
  <ellipse cx="34" cy="42" rx="5" ry="6" fill="#f5f5dc"/>
  <ellipse cx="46" cy="42" rx="5" ry="6" fill="#f5f5dc"/>
  <ellipse cx="34" cy="42" rx="2.5" ry="3" fill="#000"/>
  <ellipse cx="46" cy="42" rx="2.5" ry="3" fill="#000"/>
  <ellipse cx="35" cy="41" rx="1" ry="1.5" fill="#fff"/>
  <ellipse cx="47" cy="41" rx="1" ry="1.5" fill="#fff"/>
  
  <!-- Cat Nose -->
  <ellipse cx="40" cy="46" rx="1.5" ry="1" fill="#333"/>
  
  <!-- Cat Mouth -->
  <path d="M 40 48 Q 38 50 36 49" stroke="#333" stroke-width="1" fill="none"/>
  <path d="M 40 48 Q 42 50 44 49" stroke="#333" stroke-width="1" fill="none"/>
  <ellipse cx="40" cy="50" rx="3" ry="2" fill="#ff6b9d" stroke="#333" stroke-width="1"/>
  
  <!-- Cat Whiskers -->
  <line x1="24" y1="43" x2="30" y2="44" stroke="#333" stroke-width="1"/>
  <line x1="24" y1="46" x2="30" y2="46" stroke="#333" stroke-width="1"/>
  <line x1="24" y1="49" x2="30" y2="48" stroke="#333" stroke-width="1"/>
  <line x1="56" y1="43" x2="50" y2="44" stroke="#333" stroke-width="1"/>
  <line x1="56" y1="46" x2="50" y2="46" stroke="#333" stroke-width="1"/>
  <line x1="56" y1="49" x2="50" y2="48" stroke="#333" stroke-width="1"/>
  
  <!-- Shadow -->
  <ellipse cx="40" cy="75" rx="15" ry="3" fill="#ccc" opacity="0.3"/>
</svg>